<svg width="11" height="17" viewBox="0 0 11 17" fill="none" xmlns="http://www.w3.org/2000/svg">
<path fill-rule="evenodd" clip-rule="evenodd" d="M7.6875 4.19934C7.14583 3.24148 6.71875 2.24197 6.40625 1.20081C6.32292 0.909284 6.15104 0.706258 5.89062 0.59173C5.63021 0.477203 5.36979 0.477203 5.10938 0.59173C4.84896 0.706258 4.67708 0.909284 4.59375 1.20081C4.28125 2.24197 3.86458 3.23107 3.34375 4.16811C3.01042 4.73033 2.52083 5.47997 1.875 6.41701C1.22917 7.35405 0.791667 8.06204 0.5625 8.54097C0.1875 9.33225 0 10.1339 0 10.946C0 11.9456 0.244792 12.8722 0.734375 13.7259C1.22396 14.5797 1.89062 15.2564 2.73438 15.7562C3.57812 16.256 4.5 16.5058 5.5 16.5058C6.5 16.5058 7.42188 16.256 8.26562 15.7562C9.10938 15.2564 9.77604 14.5797 10.2656 13.7259C10.7552 12.8722 11 11.9456 11 10.946C11 10.1131 10.8125 9.31143 10.4375 8.54097C10.2083 8.06204 9.77083 7.35926 9.125 6.43263C8.47917 5.506 8 4.76157 7.6875 4.19934ZM5.85937 14.3652C5.76562 14.459 5.64582 14.5058 5.49999 14.5058C4.87499 14.5058 4.29166 14.3496 3.75 14.0371C3.20833 13.7246 2.78125 13.2975 2.46875 12.7558C2.15625 12.2142 2 11.6308 2 11.0058C2 10.86 2.04688 10.7402 2.14062 10.6465C2.23437 10.5527 2.35417 10.5058 2.5 10.5058C2.64583 10.5058 2.76562 10.5527 2.85937 10.6465C2.95312 10.7402 3 10.86 3 11.0058C3 11.6933 3.24479 12.2819 3.73437 12.7715C4.22395 13.261 4.81249 13.5058 5.49999 13.5058C5.64582 13.5058 5.76562 13.5527 5.85937 13.6465C5.95312 13.7402 6 13.86 6 14.0058C6 14.1517 5.95312 14.2715 5.85937 14.3652Z" fill="#69C5E6"/>
</svg>
