<svg width="12" height="11" viewBox="0 0 12 11" fill="none" xmlns="http://www.w3.org/2000/svg">
<path d="M10.8277 1.4427C11.312 1.8295 11.6479 2.30557 11.8354 2.8709C12.0229 3.43622 12.0502 4.00527 11.9174 4.57804C11.7846 5.1508 11.4995 5.64546 11.062 6.06202L6.53901 10.5251C6.38278 10.6739 6.20311 10.7483 6 10.7483C5.79689 10.7483 5.61722 10.6739 5.46099 10.5251L0.937982 6.08434C0.500524 5.6529 0.215395 5.1508 0.0825951 4.57804C-0.0502049 4.00527 -0.0228636 3.43622 0.164619 2.8709C0.352101 2.30557 0.688006 1.8295 1.17234 1.4427C1.59417 1.10053 2.07069 0.88481 2.60189 0.795547C3.13309 0.706285 3.65647 0.743478 4.17205 0.907125C4.68762 1.07077 5.14071 1.346 5.53129 1.7328L6 2.17911L6.46871 1.7328C6.85929 1.346 7.31238 1.07077 7.82795 0.907125C8.34353 0.743478 8.86691 0.706285 9.39811 0.795547C9.92931 0.88481 10.4058 1.10053 10.8277 1.4427Z" fill="#FF6347"/>
</svg>
