<svg width="12" height="11" viewBox="0 0 12 11" fill="none" xmlns="http://www.w3.org/2000/svg">
<path fill-rule="evenodd" clip-rule="evenodd" d="M11.8713 2.48069C11.6685 1.80981 11.2862 1.23254 10.7246 0.748887C10.2877 0.374444 9.78064 0.140416 9.20337 0.0468054C8.62611 -0.0468054 8.05274 0 7.48327 0.187222C6.91381 0.374444 6.41845 0.678679 5.9972 1.09993C5.57595 0.678679 5.0806 0.374444 4.51113 0.187222C3.94166 0 3.3683 -0.0468054 2.79103 0.0468054C2.21376 0.140416 1.7067 0.374444 1.26985 0.748887C0.708187 1.23254 0.333743 1.80981 0.146521 2.48069C-0.0407004 3.08916 -0.0485012 3.70933 0.123119 4.34121C0.294738 4.97308 0.591173 5.50744 1.01242 5.94429L5.1079 10.11C5.35753 10.3596 5.65396 10.4844 5.9972 10.4844C6.34044 10.4844 6.63688 10.3596 6.88651 10.11L10.982 5.94429C11.4032 5.50744 11.6997 4.97308 11.8713 4.34121C12.0429 3.70933 12.0429 3.08916 11.8713 2.48069ZM10.7831 4.06037C10.666 4.48942 10.4671 4.85216 10.1863 5.1486L6.06741 9.31428C6.0206 9.37669 5.9738 9.37669 5.92699 9.31428L1.80811 5.1486C1.52728 4.85216 1.32836 4.48942 1.21135 4.06037C1.09433 3.63132 1.09823 3.20617 1.22305 2.78492C1.34786 2.33247 1.60529 1.94243 1.99534 1.61479C2.44779 1.24034 2.98215 1.07653 3.59842 1.12333C4.21469 1.17014 4.74126 1.41977 5.17811 1.87222L5.9972 2.69131L6.8163 1.87222C7.25315 1.41977 7.77971 1.17014 8.39598 1.12333C9.01225 1.07653 9.54661 1.24034 9.99907 1.61479C10.3891 1.94243 10.6465 2.33247 10.7714 2.78492C10.8962 3.20617 10.9001 3.63132 10.7831 4.06037Z" fill="#4A4A4A"/>
</svg>
