<svg width="16" height="15" viewBox="0 0 16 15" fill="none" xmlns="http://www.w3.org/2000/svg">
<path fill-rule="evenodd" clip-rule="evenodd" d="M3.28986 3.89246C3.48309 4.34789 3.75362 4.72095 4.10145 5.01165C4.4686 5.34111 4.8744 5.50583 5.31884 5.50583C5.8599 5.50583 6.28502 5.27328 6.5942 4.80816C6.86473 4.42056 7 3.95545 7 3.41281C7 3.00583 6.90338 2.57463 6.71015 2.11921C6.51691 1.66378 6.25604 1.29072 5.92754 1.00002C5.56039 0.670563 5.14493 0.505834 4.68116 0.505834C4.1401 0.505834 3.71498 0.728703 3.4058 1.17444C3.13527 1.58142 3 2.04653 3 2.56979C3 2.99614 3.09662 3.43704 3.28986 3.89246ZM2.51852 9.50583C2.0642 9.50583 1.62963 9.33706 1.21481 8.99951C0.859259 8.68305 0.567901 8.27693 0.340741 7.78115C0.11358 7.28537 0 6.80014 0 6.32545C0 5.85077 0.118519 5.44465 0.355556 5.1071C0.6321 4.70626 1.00247 4.50583 1.46667 4.50583C1.93086 4.50583 2.37037 4.68516 2.78519 5.04381C3.14074 5.36026 3.4321 5.76638 3.65926 6.26216C3.88642 6.75794 4 7.24318 4 7.71786C4 8.19254 3.88148 8.59866 3.64444 8.93621C3.3679 9.31596 2.99259 9.50583 2.51852 9.50583ZM14 13.1058C14 13.6485 13.7928 14.0283 13.3785 14.2454C13.0885 14.419 12.6431 14.5058 12.0424 14.5058C11.7524 14.5058 11.4416 14.4624 11.1102 14.3756C10.903 14.3105 10.6078 14.2074 10.2246 14.0663C9.84134 13.9252 9.5565 13.833 9.37006 13.7896C9.05932 13.7027 8.7693 13.6593 8.5 13.6593C8.2307 13.6593 7.93032 13.7027 7.59887 13.7896C7.39171 13.833 7.08616 13.9252 6.6822 14.0663C6.27825 14.2074 5.97269 14.3105 5.76554 14.3756C5.39266 14.4624 5.05085 14.5058 4.74011 14.5058C3.58004 14.5058 3 14.0392 3 13.1058C3 12.3679 3.2952 11.5593 3.88559 10.6803C4.47599 9.80118 5.19586 9.06863 6.0452 8.48258C6.93597 7.83142 7.75424 7.50583 8.5 7.50583C9.24576 7.50583 10.064 7.83142 10.9548 8.48258C11.8041 9.06863 12.524 9.80661 13.1144 10.6965C13.7048 11.5865 14 12.3896 14 13.1058ZM9 3.41281C9 3.00583 9.09662 2.57463 9.28986 2.11921C9.48309 1.66378 9.74396 1.29072 10.0725 1.00002C10.4396 0.670563 10.8551 0.505834 11.3188 0.505834C11.8599 0.505834 12.285 0.728703 12.5942 1.17444C12.8647 1.58142 13 2.04653 13 2.56979C13 2.99614 12.9034 3.43704 12.7102 3.89246C12.5169 4.34789 12.2464 4.72095 11.8986 5.01165C11.5314 5.34111 11.1256 5.50583 10.6812 5.50583C10.1401 5.50583 9.71498 5.27328 9.4058 4.80816C9.13527 4.42056 9 3.95545 9 3.41281ZM15.6593 7.78115C15.8864 7.28537 16 6.80541 16 6.34128C16 5.85605 15.8815 5.44465 15.6444 5.1071C15.3679 4.70626 14.9975 4.50583 14.5333 4.50583C14.0691 4.50583 13.6296 4.68516 13.2148 5.04381C12.8593 5.36026 12.5679 5.76638 12.3407 6.26216C12.1136 6.75794 12 7.24318 12 7.71786C12 8.19254 12.1185 8.59866 12.3556 8.93621C12.6321 9.31596 13.0025 9.50583 13.4667 9.50583C13.9309 9.50583 14.3704 9.33706 14.7852 8.99951C15.1407 8.68305 15.4321 8.27693 15.6593 7.78115Z" fill="#5F9333"/>
</svg>
