<svg width="18" height="13" viewBox="0 0 18 13" fill="none" xmlns="http://www.w3.org/2000/svg">
<path fill-rule="evenodd" clip-rule="evenodd" d="M17.8632 11.5782L13.3623 4.1442C13.1981 3.8708 12.9087 3.70446 12.5971 3.70446C12.2855 3.70446 11.9961 3.8708 11.832 4.1442L10.9318 5.65889L7.97018 0.455061C7.80803 0.172952 7.5138 0 7.19603 0C6.87826 0 6.58403 0.172952 6.42187 0.455061L0.120611 11.6061C-0.039715 11.8928 -0.0402346 12.2458 0.119247 12.533C0.278728 12.8201 0.574132 12.998 0.894766 13H17.098C17.4256 13.0007 17.7276 12.8176 17.8867 12.522C18.0458 12.2264 18.0368 11.865 17.8632 11.5782ZM7.60111 11.1415H2.46108L7.19603 2.7782L9.83356 7.42447L7.60111 11.1415ZM11.6969 7.95414L9.71654 11.1415H15.4777L12.5971 6.393L11.6969 7.95414Z" fill="#FF8A86"/>
</svg>
